<svg height="512" viewBox="0 0 60 55" width="512" xmlns="http://www.w3.org/2000/svg"><g id="Page-1" fill="none" fill-rule="evenodd"><g id="029---Pet-Health" fill-rule="nonzero"><path id="Shape" d="m59 20.12c-.1027525 6.8874646-2.4754306 13.5485387-6.75 18.95-2.6-6.22-6.34-12.23-8.19-14.07-1.1845862-1.3223122-2.6895054-2.3175563-4.37-2.89-.3872223-.0998147-.6756728-.4238275-.73-.82l-.51-3.57c1.51-.69 2.61-2.16 2.61-4.72.078022-3.53643383-1.0076081-7.00061273-3.09-9.86 2.0932548-.75893418 4.3034166-1.14478172 6.53-1.14 8.58 0 14.5 8.42 14.5 18.12z" fill="#a4c2f7"/><path id="Shape" d="m44.5 2c-.59 0-1.161.03-1.718.079 7.879.794 13.218 8.834 13.218 18.041-.0681745 5.7933201-1.7764879 11.4487495-4.927 16.311.409.868.806 1.75 1.177 2.639 4.2745694-5.4014613 6.6472475-12.0625354 6.75-18.95 0-9.7-5.92-18.12-14.5-18.12z" fill="#7facfa"/><path id="Shape" d="m28 43v10.31c-18.27-6.66-27-20.53-27-33.19 0-9.7 5.92-18.12 14.5-18.12 2.7943879-.00541702 5.5559502.60219495 8.09 1.78-.1151991.12978751-.2220789.26672722-.32.41l-2.35 3.52c-.552696.82973247-1.3936586 1.42482036-2.36 1.67l-2.56.64-3.24.8c-.4297693.1075138-.7359749.4872086-.75.93-.0283427.7527904.0185567 1.5065297.14 2.25.3282219 2.7856659 2.2443317 5.1271444 4.91 6 3.0781531.0338127 6.1306969.5639558 9.04 1.57.252873.0958004.4546024.2923167.5569892.5425953.1023867.2502787.0962336.5318379-.0169892.7774047-1.6797314 3.1088531-2.5853091 6.576804-2.64 10.11.0772472 3.7079661 1.4987196 7.2616471 4 10z" fill="#a4c2f7"/><path id="Shape" d="m24 33c.0546909-3.533196.9602686-7.0011469 2.64-10.11.1132228-.2455668.1193759-.527126.0169892-.7774047-.1023868-.2502786-.3041162-.4467949-.5569892-.5425953-2.9093031-1.0060442-5.9618469-1.5361873-9.04-1.57-2.6656683-.8728556-4.5817781-3.2143341-4.91-6-.1214433-.7434703-.1683427-1.4972096-.14-2.25.0140251-.4427914.3202307-.8224862.75-.93l3.24-.8 2.56-.64c.9663414-.24517964 1.807304-.84026753 2.36-1.67l2.35-3.52c.0979211-.14327278.2048009-.28021249.32-.41-2.5340498-1.17780505-5.2956121-1.78541702-8.09-1.78-.4384465.00410445-.8763782.03114139-1.312.081 2.216017.18985422 4.3818702.76515897 6.4 1.7-.1151991.12978751-.2220789.26672722-.32.41l-2.35 3.52c-.552696.82973247-1.3936586 1.42482036-2.36 1.67l-2.558.639-3.24.8c-.42976933.1075138-.73597485.4872086-.75.93-.02834267.7527904.01855667 1.5065297.14 2.25.32822186 2.7856659 2.2443317 5.1271444 4.91 6 3.0781531.0338127 6.1306969.5639558 9.04 1.57.252873.0958004.4546024.2923167.5569892.5425953.1023867.2502787.0962336.5318379-.0169892.7774047-1.6797314 3.1088531-2.5853091 6.576804-2.64 10.11.0772472 3.7079661 1.4987196 7.2616471 4 10v9.1c.973.421 1.966.828 3 1.205v-10.305c-2.5012804-2.7383529-3.9227528-6.2920339-4-10z" fill="#7facfa"/><path id="Shape" d="m52.25 39.07c-4.4160038 5.5928027-10.16015 9.9928668-16.71 12.8-1.8066413.8100179-3.6560451 1.5210702-5.54 2.13-.68-.22-1.35-.45-2-.69v-10.31c-2.5012804-2.7383529-3.9227528-6.2920339-4-10 .0546909-3.533196.9602686-7.0011469 2.64-10.11.1132228-.2455668.1193759-.527126.0169892-.7774047-.1023868-.2502786-.3041162-.4467949-.5569892-.5425953-2.9093031-1.0060442-5.9618469-1.5361873-9.04-1.57-2.6656683-.8728556-4.5817781-3.2143341-4.91-6h2.85c.5522847 0 1-.4477153 1-1v-2.98l2.56-.64c.9663414-.24517964 1.807304-.84026753 2.36-1.67l2.35-3.52c.0979211-.14327278.2048009-.28021249.32-.41.4964196-.57670703 1.1494761-.99702534 1.88-1.21 2.7870693-.87784446 5.6726007-1.40523494 8.59-1.57 1.5598602.08544852 2.997276.87216712 3.91 2.14 2.0823919 2.85938727 3.168022 6.32356617 3.09 9.86 0 2.56-1.1 4.03-2.61 4.72l.51 3.57c.0543272.3961725.3427777.7201853.73.82 1.6804946.5724437 3.1854138 1.5676878 4.37 2.89 1.85 1.84 5.59 7.85 8.19 14.07z" fill="#e8edfc"/><path id="Shape" d="m44.06 25c-1.1845862-1.3223122-2.6895054-2.3175563-4.37-2.89-.3872223-.0998147-.6756728-.4238275-.73-.82l-.51-3.57c1.51-.69 2.61-2.16 2.61-4.72.078022-3.53643383-1.0076081-7.00061273-3.09-9.86-.912724-1.26783288-2.3501398-2.05455148-3.91-2.14-.6623803.00686017-1.3238129.05193508-1.981.135 1.1497806.34924619 2.1609603 1.05053136 2.891 2.005 2.0823919 2.85938727 3.168022 6.32356617 3.09 9.86 0 2.56-1.1 4.03-2.61 4.72l.51 3.57c.0543272.3961725.3427777.7201853.73.82 1.6804946.5724437 3.1854138 1.5676878 4.37 2.89 1.85 1.84 5.59 7.85 8.19 14.07-4.4160038 5.5928027-10.16015 9.9928668-16.71 12.8-1.288.577-2.655 1.106-4.06 1.606.5.178 1 .357 1.52.524 1.8839549-.6089298 3.7333587-1.3199821 5.54-2.13 6.54985-2.8071332 12.2939962-7.2071973 16.71-12.8-2.6-6.22-6.34-12.23-8.19-14.07z" fill="#cad9fc"/><path id="Shape" d="m16 10.02v2.98c0 .5522847-.4477153 1-1 1h-2.85c-.1214433-.7434703-.1683427-1.4972096-.14-2.25.0140251-.4427914.3202307-.8224862.75-.93z" fill="#cad9fc"/><g fill="#fff"><path id="Shape" d="m28.48 53.476c.5.178 1 .357 1.52.524.506-.1626667 1.0096667-.334 1.511-.514l-.031-.01c-18.491-6.601-27.48-20.457-27.48-33.356 0-9.195 5.324-17.227 13.188-18.039-.549-.048-1.107-.081-1.688-.081-8.58 0-14.5 8.42-14.5 18.12 0 12.899 8.989 26.755 27.48 33.356z"/><path id="Shape" d="m3.1 27.741-1.924.545c-.74316157-2.6597593-1.1384543-5.4046237-1.176-8.166h2c.03754912 2.5770561.4072646 5.1385121 1.1 7.621z"/><path id="Shape" d="m3.1 27.741-1.924.545c-.74316157-2.6597593-1.1384543-5.4046237-1.176-8.166h2c.03754912 2.5770561.4072646 5.1385121 1.1 7.621z"/></g><path id="Shape" d="m1.33 25.109c-.55228475.0027614-1.00223858-.4427153-1.005-.995s.44271525-1.0022386.995-1.005h.01c.55228475 0 1 .4477153 1 1s-.44771525 1-1 1z" fill="#428dff"/><path id="Shape" d="m44.5 1c-2.1117095.00235057-4.2098296.3378068-6.217.994-1.0701203-1.22169039-2.5996775-1.94391085-4.223-1.994-3.0113285.16336959-5.9902609.70392472-8.867 1.609-.6713244.19637636-1.2935809.53238126-1.826.986-2.4884178-1.0552075-5.1640981-1.59769002-7.867-1.595-8.691 0-15.5 8.4-15.5 19.12 0 .5522847.44771525 1 1 1s1-.4477153 1-1c0-9.6 5.93-17.12 13.5-17.12 2.236619.00392316 4.4531085.42267252 6.537 1.235l-1.951 2.923c-.4143229.62131721-1.0442246 1.0670225-1.768 1.251l-5.807 1.442c-.8588936.2173243-1.4704984.9765297-1.5 1.862-.064 1.7.163 7.375 5.732 9.235.102174.034303.2092215.0518628.317.052 2.949389.0339263 5.8751075.5313322 8.67 1.474l-.244.526c-1.6078346 3.0898276-2.4598228 6.5169724-2.486 10 .0667239 3.8272001 1.4834204 7.5077775 4 10.392v8.434c-4.9587677-1.9053444-9.5479551-4.6594659-13.562-8.139-4.90300382-4.2147249-8.49143161-9.7497481-10.338-15.946-.16124765-.5143361-.69238584-.8167837-1.217-.693-.26319898.0618678-.48883891.2303548-.62292.465139-.13408109.2347841-.16453734.5147371-.08408.772861 1.9514111 6.5657349 5.74924441 12.4320527 10.941 16.9 4.5351086 3.9236525 9.7579145 6.9731147 15.404 8.994.0868164.0477784.1806416.0815285.278.1.628.232 1.258.461 1.892.672.200833.0652506.417167.0652506.618 0 1.8881305-.6122298 3.7432824-1.3218471 5.558-2.126.025-.009.051-.005.076-.016s.041-.032.065-.044c17.58-7.866 23.992-22.098 23.992-32.646 0-10.72-6.809-19.12-15.5-19.12zm-8.343 49.487c-.1049055-.4886985-.1575349-.9871689-.157-1.487-.0521315-2.4835335 1.0677904-4.8467428 3.023-6.379 1.6567991-1.1541931 3.7800313-1.4062355 5.661-.672.3394023.1128959.7132522.0361471.9807241-.201336.2674719-.237483.3879304-.599621.316-.95s-.3253218-.6357681-.6647241-.748664c-2.4920741-.9320098-5.2833511-.5762735-7.462.951-2.4732452 1.9105965-3.901389 4.875088-3.854 8-.0038246.7825882.0970704 1.5621704.3 2.318-1.366.581-2.8 1.125-4.3 1.623-.337-.114-.67-.237-1-.357v-9.584c.0002093-.2645618-.1044287-.5184257-.291-.706-2.3062392-2.5558587-3.6218663-5.8525525-3.709-9.294.0252145-3.1914691.8138449-6.3305613 2.3-9.155l.244-.529c.2294894-.4891242.2475721-1.0511351.05-1.554-.2045596-.5119941-.6106421-.9173534-1.123-1.121-2.970452-1.0438215-6.0907777-1.5980432-9.239-1.641-4-1.428-4.287-5.51-4.231-7.21l5.808-1.443c1.2049818-.3061856 2.2535946-1.04837402 2.943-2.083l2.337-3.5c.0785063-.11655599.1650498-.22749206.259-.332.3705756-.42819561.8566011-.74064056 1.4-.9 2.6987595-.8439479 5.4896966-1.35835064 8.312-1.532 1.2567393.10358472 2.4046699.7535913 3.14 1.778 1.9248249 2.68418003 2.9282534 5.91971066 2.86 9.222 0 1.914-.682 3.2-2.029 3.812-1.4227316.5432205-3.0012185.5102158-4.4-.092-.381114-.1513089-.631234-.5199486-.631-.93v-6.79c0-.55228475-.4477153-1-1-1s-1 .44771525-1 1v6.79c.0045439 1.2285382.7530983 2.3317959 1.893 2.79 1.4995833.6112872 3.1455704.7691406 4.734.454l.344 2.4c.1126488.7888437.6865411 1.4336355 1.457 1.637 1.5120964.5283904 2.863694 1.4351932 3.926 2.634 1.553 1.544 5.05 6.934 7.737 13.2-4.0063823 4.9727493-9.1206904 8.9391291-14.934 11.582zm16.303-13.437c-2.591-5.753-5.9-10.971-7.693-12.757-1.3044537-1.4498544-2.9648945-2.5339495-4.817-3.145l-.412-2.889c1.7089365-1.1858634 2.6671558-3.1839902 2.522-5.259.0305788-3.27343787-.8275725-6.4938381-2.483-9.318 1.6019484-.45207297 3.2584855-.68155871 4.923-.682 7.57 0 13.5 7.52 13.5 17.12-.1171831 6.0695013-2.0464763 11.9653378-5.54 16.93z" fill="#428dff"/></g></g></svg>