<?xml version="1.0" standalone="no"?>
<!DOCTYPE svg PUBLIC "-//W3C//DTD SVG 20010904//EN"
 "http://www.w3.org/TR/2001/REC-SVG-20010904/DTD/svg10.dtd">
<svg version="1.0" xmlns="http://www.w3.org/2000/svg"
 width="500.000000pt" height="500.000000pt" viewBox="0 0 400.000000 450.000000"
 preserveAspectRatio="xMidYMid meet">

<g transform="translate(0.000000,500.000000) scale(0.100000,-0.100000)"
fill="#000000" stroke="none">
<path d="M1795 4503 c-385 -7 -724 -16 -754 -19 -93 -10 -139 -82 -95 -149 30
-46 50 -47 555 -35 259 6 474 8 477 6 2 -3 0 -124 -7 -268 -6 -145 -14 -419
-18 -610 -3 -192 -9 -348 -13 -348 -4 0 -43 22 -87 48 -162 97 -376 146 -543
124 -465 -62 -732 -490 -581 -930 40 -116 84 -185 176 -278 185 -187 423 -259
665 -202 25 5 86 30 136 54 157 75 276 213 340 394 27 79 64 250 64 300 0 17
4 30 10 30 12 0 131 -171 221 -320 l71 -119 -15 -708 c-8 -389 -12 -722 -10
-740 12 -75 110 -106 158 -50 13 15 26 45 29 69 3 24 10 279 16 568 6 288 12
526 14 527 1 2 34 -48 73 -110 377 -596 772 -968 1162 -1091 216 -68 384 -36
552 105 56 47 79 84 79 127 0 38 -33 79 -69 87 -37 8 -68 -8 -141 -71 -77 -66
-125 -85 -213 -86 -99 0 -154 15 -283 77 -355 171 -689 543 -1072 1197 l-51
87 161 233 c88 128 374 541 634 918 260 377 476 698 479 713 14 53 -36 117
-90 117 -48 0 -84 -48 -640 -854 -313 -454 -570 -824 -571 -823 -1 1 6 369 16
817 10 483 13 828 8 848 -13 45 -45 72 -88 72 -45 0 -76 -21 -89 -63 -6 -18
-17 -357 -26 -812 -9 -429 -18 -781 -20 -783 -2 -2 -30 36 -63 85 -34 48 -87
119 -119 156 -32 38 -66 79 -76 91 -17 20 -17 57 -7 721 6 384 12 701 15 703
2 3 179 9 392 13 214 5 403 11 422 14 78 14 107 101 52 156 l-29 29 -254 -2
c-139 0 -568 -7 -953 -15z m-166 -1482 c89 -33 200 -97 268 -156 47 -40 45
-15 23 -235 -29 -289 -119 -467 -279 -554 -182 -98 -414 -68 -574 75 -236 210
-250 578 -29 779 105 97 213 132 387 126 104 -3 131 -8 204 -35z"/>
</g>
</svg>
