<?xml version="1.0" encoding="UTF-8" standalone="no"?>
<!-- Created with Inkscape (http://www.inkscape.org/) -->

<svg
   width="210mm"
   height="297mm"
   viewBox="0 0 210 297"
   version="1.1"
   id="svg5"
   inkscape:version="1.2-dev (9ee32be, 2021-06-19)"
   sodipodi:docname="lightMode.svg"
   xmlns:inkscape="http://www.inkscape.org/namespaces/inkscape"
   xmlns:sodipodi="http://sodipodi.sourceforge.net/DTD/sodipodi-0.dtd"
   xmlns="http://www.w3.org/2000/svg"
   xmlns:svg="http://www.w3.org/2000/svg">
  <sodipodi:namedview
     id="namedview7"
     pagecolor="#505050"
     bordercolor="#eeeeee"
     borderopacity="1"
     inkscape:pageshadow="0"
     inkscape:pageopacity="0"
     inkscape:pagecheckerboard="0"
     inkscape:document-units="mm"
     showgrid="true"
     inkscape:snap-grids="true"
     inkscape:zoom="0.55678311"
     inkscape:cx="386.14677"
     inkscape:cy="589.99635"
     inkscape:window-width="1920"
     inkscape:window-height="1027"
     inkscape:window-x="0"
     inkscape:window-y="25"
     inkscape:window-maximized="1"
     inkscape:current-layer="layer1">
    <inkscape:grid
       type="xygrid"
       id="grid183" />
  </sodipodi:namedview>
  <defs
     id="defs2" />
  <g
     inkscape:label="Layer 1"
     inkscape:groupmode="layer"
     id="layer1">
    <circle
       style="fill:#ffff00;stroke-width:0.264583"
       id="path53"
       cx="105.8208"
       cy="153.72719"
       r="50" />
    <rect
       style="fill:#ffff00;stroke-width:0.264583"
       id="rect99"
       width="13.780801"
       height="43.243198"
       x="98.931702"
       y="52.006798"
       rx="2.8" />
    <rect
       style="fill:#ffff00;fill-opacity:1;stroke-width:0.264583"
       id="rect99-6"
       width="13.780801"
       height="43.243198"
       x="178.17232"
       y="-57.050137"
       rx="2.8"
       transform="rotate(41.898582)" />
    <rect
       style="fill:#ffff00;fill-opacity:1;stroke-width:0.264583"
       id="rect99-6-4"
       width="13.780801"
       height="43.243198"
       x="21.016771"
       y="83.95047"
       rx="2.8"
       transform="matrix(-0.74432807,0.66781413,0.66781413,0.74432807,0,0)" />
    <rect
       style="fill:#ffff00;fill-opacity:1;stroke-width:0.264583"
       id="rect99-6-4-2"
       width="13.780801"
       height="43.243198"
       x="13.51059"
       y="241.68094"
       rx="2.8"
       transform="matrix(-0.74432807,0.66781413,0.66781413,0.74432807,0,0)" />
    <rect
       style="fill:#ffff00;fill-opacity:1;stroke-width:0.264583"
       id="rect99-6-0"
       width="13.780801"
       height="43.243198"
       x="170.54469"
       y="102.92215"
       rx="2.8"
       transform="rotate(41.898582)" />
    <rect
       style="fill:#ffff00;stroke-width:0.264583"
       id="rect99-2"
       width="13.780801"
       height="43.243198"
       x="146.57912"
       y="-206.375"
       rx="2.8"
       transform="rotate(90)" />
    <rect
       style="fill:#ffff00;stroke-width:0.264583"
       id="rect99-2-7"
       width="13.780801"
       height="43.243198"
       x="146.57912"
       y="-47.625"
       rx="2.8"
       transform="rotate(90)" />
    <rect
       style="fill:#ffff00;stroke-width:0.264583"
       id="rect185"
       width="13.780801"
       height="43.243198"
       x="98.931702"
       y="211.2849"
       rx="2.8" />
    <path
       style="fill:#ffcc00;fill-opacity:1;stroke-width:1.79603"
       d="m 376.2686,767.66176 c -44.25942,-6.02186 -90.71429,-30.9395 -117.77889,-63.17467 -28.53523,-33.98676 -43.82091,-71.76427 -46.01922,-113.73334 -3.13721,-59.89396 23.05557,-118.34548 69.9624,-156.12735 16.95365,-13.6556 47.44331,-29.39892 67.55494,-34.88196 73.85231,-20.13438 153.35486,6.91152 199.75419,67.9542 11.77552,15.49179 27.36137,47.43391 32.50696,66.62073 3.524,13.14022 4.09418,19.64343 4.09418,46.69682 0,36.55524 -2.83622,50.4361 -16.00842,78.34758 -25.74638,54.55579 -70.4267,90.86863 -129.02945,104.8655 -17.32637,4.13829 -47.9645,5.75531 -65.03669,3.43249 z"
       id="path3824"
       transform="scale(0.26458333)" />
    <path
       style="fill:#ffde3b;fill-opacity:1;stroke-width:1.79603"
       d="M 361.63845,764.1949 C 292.23708,748.5134 237.55058,696.51926 219.03382,628.61102 c -5.55925,-20.38794 -6.90138,-61.0836 -2.69856,-81.82533 13.29897,-65.63313 54.72305,-115.23062 117.10312,-140.20881 54.78068,-21.93525 122.84168,-13.82872 173.0425,20.61054 12.33572,8.46266 37.34118,33.17502 45.07948,44.55105 9.22774,13.56565 21.85292,38.99989 28.02692,56.46205 4.88706,13.82223 5.02097,15.20696 5.02097,51.91765 0,34.54247 -0.35452,38.8503 -4.21255,51.1869 -12.74049,40.7394 -39.40551,78.73473 -71.22077,101.48343 -41.31207,29.53913 -100.26269,42.08808 -147.53648,31.4064 z"
       id="path3863"
       transform="scale(0.26458333)" />
    <path
       style="fill:#ffde3b;fill-opacity:1;stroke-width:1.79603"
       d="m 376.71704,765.88846 c -26.33053,-3.42332 -56.81533,-15.08944 -79.68726,-30.49525 -6.30342,-4.2458 -18.12289,-14.18432 -26.26548,-22.08562 -40.69241,-39.48656 -58.59298,-86.08373 -55.59203,-144.71226 3.54139,-69.18687 47.32006,-130.51485 113.4458,-158.92217 22.33993,-9.59713 43.54863,-13.77737 69.87486,-13.77235 74.38731,0.0142 135.02336,37.51259 167.1944,103.39595 17.83736,36.5293 17.95265,37.04912 17.92441,80.82141 -0.0221,34.30877 -0.39996,38.93376 -4.18166,51.1869 -16.81404,54.47944 -58.85536,101.53588 -108.0105,120.89507 -17.52212,6.90089 -36.66639,11.70947 -54.74027,13.74942 -18.12458,2.04568 -23.82503,2.03697 -39.96227,-0.0611 z"
       id="path3976"
       transform="scale(0.26458333)" />
    <path
       style="fill:#ffde3b;fill-opacity:1;stroke-width:1.79603"
       d="m 561.80209,432.16862 c -17.78636,-14.9473 -21.24347,-19.32266 -19.29541,-24.42052 2.27793,-5.96111 97.41509,-111.78693 101.44315,-112.84029 4.05876,-1.06139 9.40874,2.49218 23.08141,15.33117 7.54074,7.08094 10.97065,11.65383 10.97065,14.6265 0,3.13157 -13.5619,19.41304 -49.1547,59.01172 -42.29315,47.05314 -52.09901,57.04853 -55.96679,57.04853 -0.36184,0 -5.34707,-3.9407 -11.07831,-8.75711 z"
       id="path4015"
       transform="scale(0.26458333)" />
    <path
       style="fill:#ffde3b;fill-opacity:1;stroke-width:1.79603"
       d="m 377.44498,355.02381 c -2.66437,-2.9441 -2.97241,-10.93437 -2.97241,-77.10107 0,-80.21242 -0.27742,-77.97087 9.96814,-80.54234 7.53795,-1.89191 34.15795,-0.005 37.35242,2.64802 2.673,2.21972 2.96832,9.8703 2.96832,76.89842 0,47.87424 -0.66341,75.67305 -1.85922,77.90745 -1.66992,3.12027 -3.92752,3.47399 -22.17203,3.47399 -17.39778,0 -20.73938,-0.47134 -23.28522,-3.28447 z"
       id="path4054"
       transform="scale(0.26458333)" />
    <path
       style="fill:#ffde3b;fill-opacity:1;stroke-width:1.79603"
       d="M 220.57212,439.77267 C 215.95909,437.89472 120.31008,329.18103 119.7896,325.22429 c -0.41491,-3.15426 2.36348,-6.8147 11.67421,-15.38033 15.36942,-14.13947 19.03834,-16.56455 22.84858,-15.10242 1.67963,0.64454 25.23172,25.89257 52.33798,56.10675 37.58037,41.8892 49.28412,56.03508 49.28412,59.56785 0,3.45127 -3.09226,7.39927 -12.12321,15.47819 -10.58973,9.47336 -18.695,15.35 -20.53629,14.88961 -0.3119,-0.078 -1.52819,-0.53306 -2.70287,-1.01127 z"
       id="path4093"
       transform="scale(0.26458333)" />
    <path
       style="fill:#ffde3b;fill-opacity:1;stroke-width:1.79603"
       d="m 20.034709,601.08012 c -2.352809,-2.59982 -2.97241,-7.06526 -2.97241,-21.42202 0,-27.62008 -6.409172,-25.58829 80.614621,-25.55591 53.68988,0.02 72.2519,0.58302 75.64012,2.29436 4.34094,2.19255 4.50701,2.94371 4.9997,22.61586 0.33722,13.46412 -0.19289,21.19446 -1.56693,22.85008 -1.71504,2.0665 -15.279,2.50211 -77.909629,2.50211 -71.184893,0 -76.015255,-0.20132 -78.805472,-3.28448 z"
       id="path4132"
       transform="scale(0.26458333)" />
    <path
       style="fill:#ffde3b;fill-opacity:1;stroke-width:1.79603"
       d="m 145.47855,870.07245 c -5.8234,-2.29315 -29.63452,-25.71184 -29.63452,-29.14612 0,-1.73428 10.27732,-14.65328 22.8385,-28.70889 80.00736,-89.52602 78.12131,-87.51873 82.23256,-87.51873 3.00231,0 29.04718,22.4931 31.62745,27.31438 1.36165,2.54428 1.00026,4.70822 -1.43511,8.59288 -5.09567,8.12815 -94.42472,107.13999 -98.44475,109.11564 -1.97564,0.97093 -5.20849,1.1288 -7.18413,0.35084 z"
       id="path4171"
       transform="scale(0.26458333)" />
    <path
       style="fill:#ffde3b;fill-opacity:1;stroke-width:1.79603"
       d="m 381.65669,960.52845 c -7.02567,-2.51091 -7.18412,-4.28721 -7.18412,-80.53793 0,-69.32542 0.20388,-74.09818 3.28447,-76.88608 2.64235,-2.39129 7.19473,-2.97241 23.28522,-2.97241 17.93599,0 20.19268,0.35863 21.85997,3.47399 1.19595,2.23466 1.85922,30.0699 1.85922,78.02553 v 74.55154 l -3.99169,2.79589 c -2.94183,2.06053 -8.2561,2.75859 -20.20536,2.65409 -8.91751,-0.078 -17.42598,-0.57506 -18.90771,-1.10462 z"
       id="path4210"
       transform="scale(0.26458333)" />
    <path
       style="fill:#ffde3b;fill-opacity:1;stroke-width:1.79603"
       d="m 593.29875,814.1418 c -49.5123,-55.10249 -55.38171,-61.98861 -55.39843,-64.99462 -0.021,-3.77966 29.12584,-29.83657 33.37474,-29.83657 3.04669,0 16.01444,13.31339 52.04475,53.43194 26.39285,29.38757 49.20042,55.27816 50.68348,57.53465 1.83779,2.79623 2.18888,5.22272 1.1025,7.6198 -2.68489,5.92415 -27.82695,26.89217 -32.24551,26.89217 -3.03415,0 -15.48746,-12.72615 -49.56153,-50.64737 z"
       id="path4249"
       transform="scale(0.26458333)" />
    <path
       style="fill:#ffde3b;fill-opacity:1;stroke-width:1.79603"
       d="m 619.73271,600.37291 c -2.04513,-2.91984 -2.79589,-8.48791 -2.79589,-20.736 0,-15.3832 0.35835,-17.10266 4.40844,-21.15275 l 4.40844,-4.40844 71.47389,0.0265 c 53.95071,0.02 72.57472,0.58249 75.96397,2.29436 4.34094,2.19255 4.50701,2.94371 4.9997,22.61586 0.33722,13.46412 -0.19289,21.19446 -1.56694,22.85008 -1.71517,2.06666 -15.30462,2.50211 -78.08614,2.50211 H 622.5286 Z"
       id="path4288"
       transform="scale(0.26458333)" />
  </g>
</svg>
