<?xml version="1.0" encoding="UTF-8" standalone="no"?>
<svg
   viewBox="0 0 512 512"
   version="1.1"
   id="svg12"
   sodipodi:docname="nightMode.svg"
   inkscape:version="1.2-dev (9ee32be, 2021-06-19)"
   xmlns:inkscape="http://www.inkscape.org/namespaces/inkscape"
   xmlns:sodipodi="http://sodipodi.sourceforge.net/DTD/sodipodi-0.dtd"
   xmlns="http://www.w3.org/2000/svg"
   xmlns:svg="http://www.w3.org/2000/svg">
  <defs
     id="defs16" />
  <sodipodi:namedview
     id="namedview14"
     pagecolor="#505050"
     bordercolor="#eeeeee"
     borderopacity="1"
     inkscape:pageshadow="0"
     inkscape:pageopacity="0"
     inkscape:pagecheckerboard="0"
     showgrid="false"
     inkscape:zoom="1"
     inkscape:cx="255.5"
     inkscape:cy="295.5"
     inkscape:window-width="1299"
     inkscape:window-height="1025"
     inkscape:window-x="0"
     inkscape:window-y="25"
     inkscape:window-maximized="0"
     inkscape:current-layer="svg12" />
  <!--! Font Awesome Pro 6.0.0 by @fontawesome - https://fontawesome.com License - https://fontawesome.com/license (Commercial License) Copyright 2022 Fonticons, Inc. -->
  <path
     style="fill:#0000ff;stroke-width:0.8192"
     d=""
     id="path283" />
  <path
     id="path1837"
     style="fill:#74c0fc;fill-opacity:1;stroke-width:0.579262"
     d="m 283.61133,28.742188 c -0.50435,0.283308 -1.25823,0.338198 -2.14649,0.18164 -0.26962,0.116228 -0.59134,0.202298 -0.9707,0.240234 -0.48272,0.04828 -0.96651,0.09626 -1.44922,0.144532 -0.77089,0.07709 -1.35339,-0.07782 -1.73828,-0.34961 -0.42761,0.02979 -0.7562,0.06659 -1.38867,0.08008 -18.88211,0.402654 -36.86984,3.811879 -57.56055,10.908204 -24.87959,8.532989 -47.36489,20.844047 -68.17187,37.322265 -7.57902,6.00226 -27.12255,25.456317 -33.67578,33.523437 C 91.53722,141.53455 74.69036,179.7694 69.16406,218.24609 66.71793,235.27721 66.23763,258.82053 68,275.30273 c 5.86354,54.83757 33.82747,107.90464 75.875,143.98829 33.10796,28.41203 69.68856,45.02731 116.40234,52.86914 4.30495,0.72267 33.98698,0.77731 48.6875,0.0898 6.54748,-0.30616 14.94753,-1.07718 18.66602,-1.71289 32.52972,-5.56123 68.83678,-21.55585 96.57812,-42.54492 10.803,-8.17353 36.79483,-34.09045 38.66797,-38.55664 0.52948,-1.26245 0.74812,-3.1557 0.58789,-5.08789 -0.20929,-2.52374 -0.60549,-3.43943 -2.20703,-5.0918 -2.83805,-2.92814 -4.41342,-3.16721 -14.79687,-2.25977 -14.33271,1.25256 -33.05607,1.64726 -42.52735,0.89649 -10.44485,-0.82794 -16.40673,-1.84424 -27.61718,-4.70313 -63.39896,-16.16799 -113.5842,-67.80096 -127.84571,-131.53515 -13.07296,-58.42264 4.65599,-120.66815 46.27149,-162.458986 7.5911,-7.623091 13.61094,-12.648929 28.52343,-23.816406 6.38104,-4.778527 11.76455,-9.260307 12.59766,-10.486328 2.84679,-4.189434 1.24872,-9.080268 -3.78711,-11.582031 -5.49448,-2.729623 -18.26069,-4.193359 -36.56445,-4.193359 -7.69821,0 -10.72631,-0.07278 -11.90039,-0.375 z" />
  <path
     style="fill:#74c0fc;fill-opacity:1;stroke-width:0.4096"
     d=""
     id="path1952" />
  <path
     style="fill:#74c0fc;fill-opacity:1;stroke-width:0.4096"
     d=""
     id="path1991" />
  <path
     style="fill:#74c0fc;fill-opacity:1;stroke-width:0.4096"
     d=""
     id="path2108" />
  <path
     style="fill:#74c0fc;fill-opacity:1;stroke-width:0.4096"
     d=""
     id="path2570" />
  <path
     style="fill:#74c0fc;fill-opacity:1;stroke-width:0.4096"
     d=""
     id="path2650" />
  <path
     style="fill:#74c0fc;fill-opacity:1;stroke-width:0.4096"
     d=""
     id="path2956" />
  <path
     style="fill:#74c0fc;fill-opacity:1;stroke-width:0.4096"
     d=""
     id="path3034" />
  <path
     style="fill:#74c0fc;fill-opacity:1;stroke-width:0.4096"
     d=""
     id="path3073" />
  <path
     style="fill:#74c0fc;fill-opacity:1;stroke-width:0.4096"
     d=""
     id="path3112" />
  <path
     style="fill:#74c0fc;fill-opacity:1;stroke-width:0.4096"
     d=""
     id="path3151" />
  <path
     style="fill:#74c0fc;fill-opacity:1;stroke-width:0.4096"
     d=""
     id="path3190" />
  <path
     style="fill:#74c0fc;fill-opacity:1;stroke-width:0.4096"
     d=""
     id="path3229" />
  <path
     style="fill:#74c0fc;fill-opacity:1;stroke-width:0.4096"
     d=""
     id="path3268" />
</svg>
